<?xml version="1.0" encoding="utf-8"?>
<svg viewBox="0 0 400 400" width="400" height="400" fill="none" xmlns="http://www.w3.org/2000/svg">
  <g style="" transform="matrix(1.322887, 0, 0, 1.322887, -64.577446, -64.577446)">
    <g>
      <g transform="matrix(1, 0, 0, 1, 0.5, 0.000114)" style="">
        <path d="M 104.613 165 C 62.49 136.517 97.206 92.081 125 137.46" stroke="#000000" stroke-opacity="0.9" stroke-width="16" stroke-linecap="round" stroke-linejoin="round" style="fill-rule: nonzero;"/>
        <path d="M 259 133.798 C 279.706 100.527 328.781 104.891 298.253 150" stroke="#000000" stroke-opacity="0.9" stroke-width="16" stroke-linecap="round" stroke-linejoin="round" style="fill-rule: nonzero;"/>
        <path d="M 161.153 159 C 160.362 154.1 162.845 149.364 164 145" stroke="#000000" stroke-opacity="0.9" stroke-width="16" stroke-linecap="round" stroke-linejoin="round" style="fill-rule: nonzero;"/>
        <path d="M 194 165 C 194.409 156.616 194.948 148.211 196 140" stroke="#000000" stroke-opacity="0.9" stroke-width="16" stroke-linecap="round" stroke-linejoin="round" style="fill-rule: nonzero;"/>
        <path d="M 228 159 C 228 154.661 228 150.329 228 146" stroke="#000000" stroke-opacity="0.9" stroke-width="16" stroke-linecap="round" stroke-linejoin="round" style="fill-rule: nonzero;"/>
        <path d="M 153 223 C 160.473 220.915 168.386 220.023 176 219" stroke="#000000" stroke-opacity="0.9" stroke-width="16" stroke-linecap="round" stroke-linejoin="round" style="fill-rule: nonzero;"/>
        <path d="M 225 219 C 232.895 217.426 240.281 217.931 248 219" stroke="#000000" stroke-opacity="0.9" stroke-width="16" stroke-linecap="round" stroke-linejoin="round" style="fill-rule: nonzero;"/>
        <path d="M 188 256.005 C 221.5 238.742 217.338 264.602 191.479 260.565" stroke="#000000" stroke-opacity="0.9" stroke-width="16" stroke-linecap="round" stroke-linejoin="round" style="fill-rule: nonzero;"/>
        <path d="M 201 267 C 199.054 288.306 181.973 290.175 167 283.734" stroke="#000000" stroke-opacity="0.9" stroke-width="16" stroke-linecap="round" stroke-linejoin="round" style="fill-rule: nonzero;"/>
        <path d="M 200.041 267 C 198.864 295.299 223.581 291.006 237 277.407" stroke="#000000" stroke-opacity="0.9" stroke-width="16" stroke-linecap="round" stroke-linejoin="round" style="fill-rule: nonzero;"/>
        <path d="M 111 243 C 96.326 238.228 80.812 237.965 66 236" stroke="#000000" stroke-opacity="0.9" stroke-width="16" stroke-linecap="round" stroke-linejoin="round" style="fill-rule: nonzero;"/>
        <path d="M 116 267 C 99.868 270.808 83.743 273.752 68 279" stroke="#000000" stroke-opacity="0.9" stroke-width="16" stroke-linecap="round" stroke-linejoin="round" style="fill-rule: nonzero;"/>
        <path d="M 293 233 C 304.501 229.96 315.688 225.62 327 222" stroke="#000000" stroke-opacity="0.9" stroke-width="16" stroke-linecap="round" stroke-linejoin="round" style="fill-rule: nonzero;"/>
        <path d="M 297 261 C 308.857 259.497 322.138 260.027 333 260.429" stroke="#000000" stroke-opacity="0.9" stroke-width="16" stroke-linecap="round" stroke-linejoin="round" style="fill-rule: nonzero;"/>
      </g>
    </g>
  </g>
</svg>